<svg data-v-0dd9719b="" version="1.0" xmlns="http://www.w3.org/2000/svg" xmlns:xlink="http://www.w3.org/1999/xlink" width="100%" height="100%" viewBox="0 0 340.000000 250.000000" preserveAspectRatio="xMidYMid meet" color-interpolation-filters="sRGB" style="margin: auto;"> <rect data-v-0dd9719b="" x="0" y="0" width="100%" height="100%" fill="#ffffff" fill-opacity="1" class="background"></rect> <rect data-v-0dd9719b="" x="0" y="0" width="100%" height="100%" fill="url(#watermark)" fill-opacity="1" class="watermarklayer"></rect> <g data-v-0dd9719b="" fill="#bb2e2e" class="icon-text-wrapper icon-svg-group iconsvg" transform="translate(72.95999908447266,96.00496864318848)"><g class="iconsvg-imagesvg" transform="translate(0,0)"><g><rect fill="#bb2e2e" fill-opacity="0" stroke-width="2" x="0" y="0" width="60" height="57.99006436897145" class="image-rect"></rect> <svg filter="url(#colors7456986636)" x="0" y="0" width="60" height="57.99006436897145" filtersec="colorsf4381739515" class="image-svg-svg primary" style="overflow: visible;"><svg version="1.1" id="Capa_1" xmlns="http://www.w3.org/2000/svg" xmlns:xlink="http://www.w3.org/1999/xlink" x="0px" y="0px" viewBox="0.00013577938079833984 1.6560001373291016 98.85218811035156 95.54100036621094" style="enable-background:new 0 0 98.852 98.851;" xml:space="preserve"><g> <g> <path d="M46.803,30.604c0.105-0.138,0.209-0.276,0.311-0.415c-2.752-4.237-4.452-8.446-4.452-11.045 c0-5.352,4.027-7.844,6.749-7.844c2.725,0,6.755,2.493,6.755,7.844c0,3.188-2.613,8.842-6.355,13.753 c-2.474,3.247-5.116,5.978-7,7.784c1.821,2.805,3.462,5.707,4.887,8.639c2.57-2.292,6.198-5.871,9.789-10.584 c3.876-5.086,8.325-11.91,8.325-19.591c0-9.644-7.357-17.489-16.4-17.489c-9.039,0-16.393,7.845-16.393,17.489 c0,7.251,3.926,13.638,7.495,18.475C42.868,35.33,45.086,32.857,46.803,30.604z"></path> <path d="M19.237,59.073c0,0,0.002,0,0.003,0c3.747,0,7.874-0.785,12.944-2.469c-1.08-2.198-2.709-5.236-4.726-8.15 c-0.099-0.142-0.199-0.283-0.3-0.423c-4.786,1.282-9.439,1.614-11.881,0.82c-5.086-1.652-6.215-6.252-5.376-8.841 c0.722-2.222,3.261-4.47,6.716-4.47c0.922,0,1.874,0.158,2.831,0.468c3.03,0.984,7.603,5.218,11.119,10.296 c1.845,2.667,3.694,5.87,5.238,9.063c3.233-0.865,6.499-1.529,9.726-1.979c-1.872-4.262-4.356-8.705-7.041-12.581 c-3.64-5.258-8.755-11.597-16.06-13.971c-1.877-0.609-3.8-0.918-5.717-0.918c-7.285,0-13.858,4.569-15.983,11.112 c-1.29,3.973-0.856,8.483,1.191,12.375c2.147,4.083,5.832,7.145,10.374,8.619C14.441,58.718,16.777,59.073,19.237,59.073z"></path> <path d="M47.607,66.565c0.175-3.328,0.553-6.64,1.125-9.862c-3.427,0.344-8.466,1.105-14.141,2.809 c-6.126,1.838-13.737,4.744-18.251,10.959c-5.667,7.801-4.326,18.473,2.99,23.789c2.646,1.92,5.847,2.937,9.258,2.937 c5.638,0,10.842-2.716,14.282-7.451c4.261-5.864,4.84-13.341,4.796-19.353c-2.423,0.348-5.813,0.957-9.211,1.977 c-0.166,0.051-0.331,0.102-0.496,0.154c-0.265,5.045-1.362,9.447-2.892,11.554c-2.21,3.042-4.947,3.496-6.383,3.496 c-1.365,0-2.708-0.407-3.686-1.116c-1.255-0.912-2.175-2.486-2.461-4.213c-0.239-1.447-0.155-3.682,1.605-6.105 c1.872-2.578,7.312-5.615,13.226-7.389C41.277,67.574,45.02,66.917,47.607,66.565z"></path> <path d="M65.562,59.927c-0.418,2.416-0.885,5.832-0.966,9.371c-0.004,0.174-0.006,0.346-0.007,0.52 c4.717,1.811,8.564,4.216,10.094,6.32c3.146,4.328,1.354,8.711-0.847,10.312c-0.979,0.711-2.326,1.118-3.694,1.118 c-1.437,0-4.175-0.453-6.384-3.493c-1.873-2.58-3.082-8.693-2.94-14.863c0.093-4.078,0.624-7.84,1.088-10.41 c-3.12-1.199-6.151-2.582-9.03-4.119c-0.99,4.547-1.593,9.602-1.7,14.318c-0.146,6.393,0.267,14.528,4.782,20.742 c3.438,4.732,8.643,7.446,14.278,7.448h0.001c3.416,0,6.619-1.017,9.268-2.938c3.38-2.455,5.68-6.359,6.312-10.713 c0.66-4.564-0.521-9.207-3.328-13.07C78.224,64.603,71.294,61.743,65.562,59.927z"></path> <path d="M98.096,37.02c-2.125-6.538-8.695-11.104-15.979-11.104c-1.918,0-3.843,0.309-5.72,0.918 c-6.896,2.241-11.758,7.948-15.255,12.836c2.901,1.532,5.938,2.878,8.614,3.816c0.165,0.057,0.327,0.113,0.489,0.167 c3.182-3.927,6.657-6.843,9.132-7.647c0.959-0.312,1.912-0.469,2.837-0.469c3.452,0,5.987,2.245,6.709,4.463 c0.842,2.592-0.284,7.197-5.373,8.85c-0.896,0.291-2.059,0.438-3.457,0.438c-3.312,0-7.534-0.813-11.586-2.234 c-3.853-1.348-7.266-3.017-9.566-4.251c-2.103,2.597-4.354,5.054-6.705,7.318c2.974,1.737,7.497,4.081,13.09,6.039 c3.571,1.25,8.935,2.914,14.254,2.915c2.465,0,4.804-0.354,6.951-1.053C95.7,55.042,100.89,45.622,98.096,37.02z"></path> </g></g></svg></svg> <defs><filter id="colors7456986636"><feColorMatrix type="matrix" values="0 0 0 0 0.73046875  0 0 0 0 0.1796875  0 0 0 0 0.1796875  0 0 0 1 0" class="icon-fecolormatrix"></feColorMatrix></filter> <filter id="colorsf4381739515"><feColorMatrix type="matrix" values="0 0 0 0 0.99609375  0 0 0 0 0.99609375  0 0 0 0 0.99609375  0 0 0 1 0" class="icon-fecolormatrix"></feColorMatrix></filter> <filter id="colorsb8999761532"><feColorMatrix type="matrix" values="0 0 0 0 0  0 0 0 0 0  0 0 0 0 0  0 0 0 1 0" class="icon-fecolormatrix"></feColorMatrix></filter></defs></g></g> <g transform="translate(67,2.764894485473633)"><g data-gra="path-name" fill-rule="" class="tp-name iconsvg-namesvg"><g transform="scale(1)"><g><path d="M1.67 0L8.74 0C14.01 0 15.49-2.06 15.49-4.79 15.49-7.29 13.15-8.69 10.36-8.81L10.36-8.93C12.49-9.18 13.96-10.48 13.96-12.79 13.96-15.19 12.86-17.18 8.07-17.18L1.67-17.18ZM4.98-10.04L4.98-14.58 7.71-14.58C9.89-14.58 10.82-13.92 10.82-12.42 10.82-10.65 9.45-10.04 7.58-10.04ZM4.98-2.63L4.98-7.53 7.9-7.53C10.33-7.53 11.98-6.68 11.98-4.96 11.98-3.24 10.72-2.63 7.95-2.63ZM20.91 0L24.44 0 31.17-17.18 27.39-17.18 22.87-4.02 22.65-4.02 18.11-17.18 14.63-17.18ZM39.68-5.82C44.1-5.82 45.92-8.52 45.92-11.66 45.92-14.75 44.35-17.18 39.68-17.18L32.91-17.18 32.91 0 36.22 0 36.22-5.82ZM39.12-14.28C41.48-14.28 42.43-13.35 42.43-11.56 42.43-9.77 41.28-8.71 39.14-8.71L36.22-8.71 36.22-14.28ZM55.32 0L58.63 0 58.63-7.41 67.44-7.41 67.44 0 70.76 0 70.76-17.18 67.44-17.18 67.44-10.55 58.63-10.55 58.63-17.18 55.32-17.18ZM73.31-8.59C73.31-2.95 77.26 0.25 82.22 0.25 87.3 0.25 91.22-2.95 91.22-8.59 91.22-14.5 87.3-17.42 82.22-17.42 77.26-17.42 73.31-14.26 73.31-8.59ZM76.65-8.59C76.65-12.42 79.07-14.31 82.22-14.31 85.46-14.31 87.91-12.42 87.91-8.59 87.91-4.76 85.46-2.9 82.22-2.9 79.07-2.9 76.65-4.76 76.65-8.59ZM93.8 0L97.02 0 97.02-11.68 97.14-11.68 105.41 0 108.65 0 108.65-17.18 105.48-17.18 105.48-5.35 105.36-5.35 97.06-17.18 93.8-17.18ZM125.78-2.58L125.66 0 128.75 0C128.75-0.12 128.75-9.03 128.75-9.15L119.62-9.15 119.62-6.75 125.71-6.75C125.46-4.66 123.32-2.5 120.21-2.5 116.4-2.5 114.49-5.15 114.49-8.59 114.49-11.93 116.8-14.5 120.23-14.5 122.86-14.5 124.55-13.28 125.19-11.31L128.7-11.31C127.86-15.61 124.9-17.42 120.21-17.42 114.73-17.42 111.27-13.99 111.27-8.59 111.27-3.22 114.39 0.25 119.86 0.25 123.77 0.25 125.26-1.64 125.66-2.58Z" transform="translate(-1.6700000762939453, 17.420000076293945)"></path></g> <!----> <!----> <!----> <!----> <!----> <!----> <g data-gra="path-name-1" fill="#bb2e2e" transform="translate(0,20.670001983642578)"><g transform="scale(1.01794)"><path d="M8.81-30.36L2.95-30.36 2.95 0 8.81 0 8.81-8.55 13.27-13.1 23.64 0 31.32 0 17.39-17.09 30.67-30.36 22.99-30.36 8.81-15.57ZM29.8-15.18C29.8-5.21 36.78 0.43 45.55 0.43 54.52 0.43 61.46-5.21 61.46-15.18 61.46-25.64 54.52-30.8 45.55-30.8 36.78-30.8 29.8-25.2 29.8-15.18ZM35.7-15.18C35.7-21.95 39.99-25.29 45.55-25.29 51.27-25.29 55.61-21.95 55.61-15.18 55.61-8.42 51.27-5.12 45.55-5.12 39.99-5.12 35.7-8.42 35.7-15.18ZM66.02 0L71.7 0 71.7-20.65 71.92-20.65 86.54 0 92.26 0 92.26-30.36 86.67-30.36 86.67-9.46 86.45-9.46 71.79-30.36 66.02-30.36ZM122.54-4.55L122.32 0 127.79 0C127.79-0.22 127.79-15.96 127.79-16.18L111.65-16.18 111.65-11.93 122.41-11.93C121.98-8.24 118.2-4.42 112.69-4.42 105.97-4.42 102.59-9.11 102.59-15.18 102.59-21.08 106.66-25.64 112.74-25.64 117.38-25.64 120.37-23.47 121.5-20L127.7-20C126.23-27.59 120.98-30.8 112.69-30.8 103.02-30.8 96.9-24.72 96.9-15.18 96.9-5.68 102.41 0.43 112.09 0.43 118.98 0.43 121.63-2.91 122.32-4.55Z" transform="translate(-2.950000047683716, 30.799999237060547)"></path></g></g></g></g> <!----></g></g></svg>